<svg id="Layer_1" data-name="Layer 1" xmlns="http://www.w3.org/2000/svg" viewBox="0 0 161.16 20.35"><defs><style>.cls-1{fill:#189dfc;}</style></defs><path class="cls-1" d="M211.74,56.13c-2.06-.61-2.36-1-2.34-3.19a48.46,48.46,0,0,1,.13-5.91,7.73,7.73,0,0,1,10.75-6.26,7.36,7.36,0,0,0,5.77,0,7.87,7.87,0,0,1,10.79,7.44c0,1.9,0,3.79-.1,5.69,0,1.45-.77,2-2.47,2-1.54,0-2.34-.61-2.39-2-.06-1.9,0-3.79-.06-5.69a7.85,7.85,0,0,0-.3-2,2.76,2.76,0,0,0-2.69-2A2.5,2.5,0,0,0,226.12,46a13.93,13.93,0,0,0-.52,3.35c-.11,1.58,0,3.16-.17,4.73s-.69,1.84-2.1,1.87c-1.74.05-2.37-.3-2.54-1.8-.18-1.72-.12-3.46-.2-5.19a12.29,12.29,0,0,0-.29-2.58,2.72,2.72,0,0,0-2.8-2.13,2.66,2.66,0,0,0-2.8,2.13,53.67,53.67,0,0,0-.36,5.54c0,.39,0,.78,0,1.18,0,1.94-.37,2.43-2.16,3Z" transform="translate(-136.85 -35.78)"/><path class="cls-1" d="M295.85,56.13c-2.2-.62-3-2.17-2.87-4.29,0-1.22.09-2.44,0-3.66a3.31,3.31,0,0,0-2.33-3,12.79,12.79,0,0,0-9.35,0,3.65,3.65,0,0,0-2.45,3.59c-.05,1.57,0,3.16,0,4.74,0,1.81-.76,2.49-2.58,2.47-1.65,0-2.31-.7-2.32-2.45,0-2.14,0-4.27,0-6.41a4.44,4.44,0,0,1,2.42-4.19c6.35-3.59,12.72-3.67,19.11-.08a4,4,0,0,1,2.32,3.83,12,12,0,0,0,.2,1.87v7.59Z" transform="translate(-136.85 -35.78)"/><path class="cls-1" d="M201.19,56.13c-1.92-.7-2.35-1.26-2.34-3.18q0-7.23.1-14.46c0-1.47.52-2.22,1.67-2.54,2.07-.57,3.28.3,3.29,2.45,0,5,0,10,0,15.06a2.58,2.58,0,0,1-1.54,2.67Z" transform="translate(-136.85 -35.78)"/><path class="cls-1" d="M151.64,40.5c-2.08,0-4.15,0-6.23,0a3.53,3.53,0,0,0-1.64.19c-.59.32-1.38.88-1.45,1.42-.1.87.76,1.33,1.62,1.38,2,.12,4.07.15,6.1.26,2.47.14,4.94.24,7.39.5,3.16.34,4.85,2.21,4.94,5.23s-1.57,5.32-4.73,5.67c-3.55.41-7.14.52-10.72.67-2.15.09-4.31,0-6.46,0-.51,0-1.2,0-1.49-.28-.63-.63-1.53-1.53-1.43-2.19s1.22-1.26,2-1.71a3.32,3.32,0,0,1,1.53-.11L155,51.42a1.76,1.76,0,0,0,1.13-.24,2.53,2.53,0,0,0,.9-1.49,1.81,1.81,0,0,0-1-1.35,14.8,14.8,0,0,0-3.07-.26c-3.62-.17-7.27-.12-10.86-.54-3.88-.45-5.61-2.86-5.11-6.45a4.79,4.79,0,0,1,3.6-4.16,16,16,0,0,1,4.1-.73c4.78-.1,9.57-.07,14.36-.08a4.85,4.85,0,0,1,1.07.1,2.09,2.09,0,0,1,1.61,2.1,1.69,1.69,0,0,1-1.44,1.89,10,10,0,0,1-2.25.28C155.87,40.53,153.75,40.5,151.64,40.5Z" transform="translate(-136.85 -35.78)"/><path class="cls-1" d="M255.39,45c-1.91,0-3.83-.07-5.74,0-2.58.1-4.12,2.09-3.42,4.29a2.83,2.83,0,0,0,2.64,2.07c2.27.17,4.54.18,6.81.25,1.16,0,2.32,0,3.47.09,1,.09,2,.34,2,1.62A2.51,2.51,0,0,1,259,55.66c-3.87,0-7.74,0-11.6-.1a5.51,5.51,0,0,1-4.31-2.46c-1.68-2.14-2.86-4.47-1.51-7.21,1.42-2.9,3.53-5,7.07-5,2.44,0,4.87,0,7.3,0,3,0,6.05-.16,9.08-.19,2.58,0,3.35.75,3.36,3.31,0,3.12,0,6.24,0,9.36,0,2-.8,2.7-2.82,2.59-1.31-.07-2-.66-2.07-2-.08-2.09-.06-4.19-.05-6.28s-.65-2.77-2.77-2.79h-5.27Z" transform="translate(-136.85 -35.78)"/><path class="cls-1" d="M182.54,40.7c2.44,0,4.87,0,7.31,0,3.12,0,4.38,1.22,4.46,4.29.07,2.36,0,4.73,0,7.1a3.87,3.87,0,0,1-2.09,3.37A1.48,1.48,0,0,1,190,55a4.85,4.85,0,0,1-.74-2.18c-.09-2.17-.06-4.35,0-6.52,0-.74-.18-1.1-1-1.11-4.54,0-9.08-.17-13.63-.18-1.4,0-2.11.75-2.43,2.17-.6,2.72.53,4.26,3.31,4.34,2.51.08,5,0,7.55,0a2.86,2.86,0,0,1,1.6.31c.59.47,1.33,1.18,1.36,1.82a2.11,2.11,0,0,1-2.28,1.92c-3.67-.12-7.34-.21-11-.45-3.51-.23-5.5-2.27-5.81-5.73-.48-5.33,2.39-8.46,8.11-8.69,2.51-.11,5,0,7.54,0Z" transform="translate(-136.85 -35.78)"/></svg>